<?xml version="1.0" encoding="UTF-8"?>
<svg xmlns="http://www.w3.org/2000/svg" viewBox="0 0 48 48" width="48" height="48">
  <defs>
    <linearGradient id="illustrationGradient" x1="0%" y1="0%" x2="100%" y2="100%">
      <stop offset="0%" style="stop-color:#f4e99b;stop-opacity:1" />
      <stop offset="100%" style="stop-color:#d4af37;stop-opacity:1" />
    </linearGradient>
  </defs>
  
  <!-- Canvas/Artboard -->
  <rect x="8" y="8" width="28" height="32" rx="2" fill="none" stroke="url(#illustrationGradient)" stroke-width="2"/>
  <rect x="10" y="10" width="24" height="28" fill="url(#illustrationGradient)" opacity="0.05"/>
  
  <!-- Illustration elements -->
  <circle cx="18" cy="18" r="4" fill="none" stroke="url(#illustrationGradient)" stroke-width="1.5"/>
  <path d="M 14 18 Q 18 14 22 18 Q 18 22 14 18" fill="url(#illustrationGradient)" opacity="0.4"/>
  
  <!-- Artistic strokes -->
  <path d="M 12 26 Q 20 24 28 26 Q 24 30 16 28" fill="none" stroke="url(#illustrationGradient)" stroke-width="2" opacity="0.7"/>
  <path d="M 14 32 Q 18 30 22 32" fill="none" stroke="url(#illustrationGradient)" stroke-width="1.5" opacity="0.6"/>
  
  <!-- Brush -->
  <line x1="38" y1="10" x2="42" y2="6" stroke="url(#illustrationGradient)" stroke-width="3"/>
  <ellipse cx="39.5" cy="11.5" rx="1.5" ry="3" transform="rotate(45 39.5 11.5)" fill="url(#illustrationGradient)"/>
  <line x1="36" y1="12" x2="40" y2="8" stroke="url(#illustrationGradient)" stroke-width="1" opacity="0.8"/>
  
  <!-- Color palette -->
  <circle cx="40" cy="20" r="2" fill="url(#illustrationGradient)" opacity="0.8"/>
  <circle cx="42" cy="25" r="1.5" fill="url(#illustrationGradient)" opacity="0.6"/>
  <circle cx="38" cy="25" r="1.5" fill="url(#illustrationGradient)" opacity="0.4"/>
  
  <!-- Sparkle effects -->
  <circle cx="30" cy="14" r="0.5" fill="url(#illustrationGradient)"/>
  <circle cx="26" cy="20" r="0.5" fill="url(#illustrationGradient)" opacity="0.8"/>
  <circle cx="20" cy="34" r="0.5" fill="url(#illustrationGradient)" opacity="0.6"/>
</svg>